<?xml version="1.0" standalone="no"?>
<!DOCTYPE svg PUBLIC "-//W3C//DTD SVG 20010904//EN"
 "http://www.w3.org/TR/2001/REC-SVG-20010904/DTD/svg10.dtd">
<svg version="1.0" xmlns="http://www.w3.org/2000/svg"
 width="current" height="current" viewBox="0 0 500.000000 500.000000"
 preserveAspectRatio="xMidYMid meet">

<g transform="translate(0.000000,500.000000) scale(0.100000,-0.100000)"
fill="#000000" stroke="none">
<path d="M1710 4680 l0 -120 281 0 c174 0 288 -4 300 -10 17 -9 19 -22 19
-104 0 -76 -3 -96 -18 -109 -15 -14 -55 -16 -271 -19 l-253 -3 -29 -33 -29
-32 0 -320 0 -320 150 0 150 0 0 -75 0 -75 -150 0 -150 0 0 -115 0 -115 415 0
415 0 0 115 0 115 -145 0 -145 0 0 75 0 75 150 0 150 0 0 115 0 115 -283 0
c-341 0 -322 -7 -322 125 0 55 5 87 14 98 12 15 46 17 302 17 l289 0 0 360 0
360 -420 0 -420 0 0 -120z"/>
<path d="M3325 4337 c-142 -48 -234 -145 -271 -286 -22 -90 -12 -171 32 -261
124 -248 440 -292 629 -88 74 79 99 146 100 264 0 85 -2 95 -38 166 -65 133
-183 209 -332 215 -48 2 -96 -2 -120 -10z m165 -272 c36 -19 60 -62 60 -110 0
-26 -9 -45 -34 -73 -31 -33 -39 -37 -85 -37 -43 0 -55 5 -81 30 -101 101 14
255 140 190z"/>
<path d="M819 4205 c-54 -29 -59 -59 -59 -339 l0 -256 140 0 140 0 0 -75 0
-75 -145 0 -145 0 0 -115 0 -115 420 0 420 0 0 115 0 115 -155 0 -155 0 0 75
0 75 155 0 155 0 0 115 0 115 -275 0 c-262 0 -276 1 -295 20 -26 26 -27 90 -2
113 16 15 52 17 295 17 l277 0 0 115 0 115 -372 0 c-303 -1 -378 -3 -399 -15z"/>
<path d="M3920 3835 l0 -385 115 0 115 0 0 385 0 385 -115 0 -115 0 0 -385z"/>
<path d="M3060 3345 l0 -115 120 0 120 0 0 -120 0 -120 115 0 114 0 3 118 3
117 118 3 117 3 0 114 0 115 -355 0 -355 0 0 -115z"/>
<path d="M626 2838 c-15 -24 -118 -193 -345 -568 -115 -191 -136 -231 -136
-265 0 -23 7 -52 16 -66 20 -30 247 -155 259 -143 5 5 73 115 151 244 217 360
223 370 230 370 3 0 85 -132 182 -292 97 -161 183 -302 191 -313 14 -19 19
-16 160 78 80 54 148 103 152 108 3 5 -15 42 -40 81 -26 40 -42 76 -38 80 5 5
53 7 108 6 l99 -3 3 -182 2 -183 170 0 170 0 0 535 0 535 -170 0 -170 0 -2
-182 -3 -183 -177 -3 -178 -2 0 -46 c0 -26 -4 -44 -10 -42 -5 2 -72 104 -148
228 l-139 225 -161 3 c-158 2 -161 2 -176 -20z"/>
<path d="M2290 2838 c-18 -13 -43 -36 -54 -51 -20 -27 -21 -41 -24 -398 l-3
-369 196 0 196 0 -3 -102 -3 -103 -197 -3 -198 -2 0 -165 0 -165 588 2 587 3
0 163 0 163 -215 2 -215 2 -3 103 -3 102 216 0 215 0 0 160 0 160 -383 0
c-424 0 -415 -1 -437 66 -14 41 -8 71 21 107 l20 27 390 0 389 0 0 160 0 160
-524 0 -523 0 -33 -22z"/>
<path d="M3540 2695 l0 -165 390 0 391 0 24 -26 25 -27 0 -240 0 -239 113 3
c105 4 116 6 149 31 68 52 68 54 68 462 l0 366 -580 0 -580 0 0 -165z"/>
<path d="M3530 1645 l0 -165 220 0 220 0 0 -165 0 -165 165 0 165 0 2 163 3
162 203 3 202 2 0 165 0 165 -590 0 -590 0 0 -165z"/>
<path d="M1371 1674 c-131 -35 -248 -131 -309 -254 -121 -242 -18 -534 229
-650 350 -162 738 128 681 510 -42 281 -326 468 -601 394z m190 -334 c59 -30
81 -72 76 -143 -3 -51 -8 -62 -40 -95 -35 -35 -41 -37 -101 -37 -55 0 -68 4
-91 25 -82 77 -71 200 23 250 48 25 83 25 133 0z"/>
<path d="M2675 1350 c-325 -70 -522 -411 -412 -713 32 -89 77 -156 148 -221
219 -203 552 -195 765 18 209 209 216 525 17 745 -60 67 -143 121 -230 152
-65 23 -223 34 -288 19z m159 -331 c179 -45 217 -293 60 -385 -165 -97 -364
52 -313 234 17 60 89 135 145 150 53 14 59 14 108 1z"/>
</g>
</svg>
