<?xml version="1.0" standalone="no"?>
<!DOCTYPE svg PUBLIC "-//W3C//DTD SVG 20010904//EN"
 "http://www.w3.org/TR/2001/REC-SVG-20010904/DTD/svg10.dtd">
<svg version="1.0" xmlns="http://www.w3.org/2000/svg"
 width="340.000000pt" height="800.000000pt" viewBox="0 0 340.000000 800.000000"
 preserveAspectRatio="xMidYMid meet">

<g transform="translate(0.000000,800.000000) scale(0.100000,-0.100000)"
fill="#000000" stroke="none">
<path d="M0 5696 l0 -2295 54 -20 c156 -58 337 -86 516 -78 274 12 498 121
759 372 201 192 350 386 716 925 375 554 549 775 735 940 104 91 237 179 332
218 75 31 203 62 258 62 l30 0 0 1085 0 1085 -1700 0 -1700 0 0 -2294z"/>
</g>
</svg>
