<?xml version="1.0" standalone="no"?>
<!DOCTYPE svg PUBLIC "-//W3C//DTD SVG 20010904//EN"
 "http://www.w3.org/TR/2001/REC-SVG-20010904/DTD/svg10.dtd">
<svg version="1.0" xmlns="http://www.w3.org/2000/svg"
 width="340.000000pt" height="800.000000pt" viewBox="0 0 340.000000 800.000000"
 preserveAspectRatio="xMidYMid meet">

<g transform="translate(0.000000,800.000000) scale(0.100000,-0.100000)"
fill="#000000" stroke="none">
<path d="M0 6065 c0 -1299 3 -1925 10 -1925 32 0 218 47 303 77 256 89 441
216 692 475 155 159 277 308 490 598 88 118 199 267 248 330 326 419 590 639
836 696 81 20 276 14 366 -11 124 -34 273 -118 423 -241 l32 -27 0 977 0 976
-1700 0 -1700 0 0 -1925z"/>
</g>
</svg>
