<?xml version="1.0" standalone="no"?>
<!DOCTYPE svg PUBLIC "-//W3C//DTD SVG 20010904//EN"
 "http://www.w3.org/TR/2001/REC-SVG-20010904/DTD/svg10.dtd">
<svg version="1.0" xmlns="http://www.w3.org/2000/svg"
 width="340.000000pt" height="800.000000pt" viewBox="0 0 340.000000 800.000000"
 preserveAspectRatio="xMidYMid meet">

<g transform="translate(0.000000,800.000000) scale(0.100000,-0.100000)"
fill="#000000" stroke="none">
<path d="M0 5875 c0 -1163 4 -2115 8 -2115 17 0 127 118 240 255 388 474 632
670 918 736 83 19 114 21 232 16 160 -6 274 -34 411 -98 222 -104 357 -213
751 -608 392 -393 527 -504 748 -615 l92 -46 0 2295 0 2295 -1700 0 -1700 0 0
-2115z"/>
</g>
</svg>
