<svg width="30" height="30" viewBox="0 0 22 22" fill="none" xmlns="http://www.w3.org/2000/svg">
<path d="M8 11L10 13L14 9M2.84995 7.6201C2.70399 6.96262 2.7264 6.27894 2.91511 5.63244C3.10381 4.98593 3.4527 4.39754 3.92942 3.92182C4.40614 3.4461 4.99526 3.09844 5.64216 2.91109C6.28905 2.72374 6.97278 2.70276 7.62995 2.8501C7.99166 2.2844 8.48995 1.81886 9.0789 1.49638C9.66785 1.17391 10.3285 1.00488 10.9999 1.00488C11.6714 1.00488 12.332 1.17391 12.921 1.49638C13.5099 1.81886 14.0082 2.2844 14.3699 2.8501C15.0281 2.70212 15.713 2.72301 16.3609 2.91081C17.0089 3.09862 17.5988 3.44724 18.0758 3.92425C18.5528 4.40126 18.9014 4.99117 19.0892 5.6391C19.277 6.28703 19.2979 6.97193 19.1499 7.6301C19.7156 7.99181 20.1812 8.4901 20.5037 9.07905C20.8261 9.668 20.9952 10.3286 20.9952 11.0001C20.9952 11.6715 20.8261 12.3322 20.5037 12.9211C20.1812 13.5101 19.7156 14.0084 19.1499 14.3701C19.2973 15.0273 19.2763 15.711 19.089 16.3579C18.9016 17.0048 18.554 17.5939 18.0782 18.0706C17.6025 18.5473 17.0141 18.8962 16.3676 19.0849C15.7211 19.2736 15.0374 19.2961 14.3799 19.1501C14.0187 19.718 13.52 20.1855 12.9301 20.5094C12.3401 20.8333 11.678 21.0032 11.0049 21.0032C10.3319 21.0032 9.66978 20.8333 9.07982 20.5094C8.48987 20.1855 7.99119 19.718 7.62995 19.1501C6.97278 19.2974 6.28905 19.2765 5.64216 19.0891C4.99526 18.9018 4.40614 18.5541 3.92942 18.0784C3.4527 17.6027 3.10381 17.0143 2.91511 16.3678C2.7264 15.7213 2.70399 15.0376 2.84995 14.3801C2.27991 14.0193 1.81036 13.5203 1.485 12.9293C1.15963 12.3384 0.989014 11.6747 0.989014 11.0001C0.989014 10.3255 1.15963 9.66184 1.485 9.07088C1.81036 8.47992 2.27991 7.98085 2.84995 7.6201Z" stroke="black" stroke-linecap="round" stroke-linejoin="round"/>
</svg>
