<?xml version="1.0" standalone="no"?>
<!DOCTYPE svg PUBLIC "-//W3C//DTD SVG 20010904//EN"
 "http://www.w3.org/TR/2001/REC-SVG-20010904/DTD/svg10.dtd">
<svg version="1.0" xmlns="http://www.w3.org/2000/svg"
 width="500.000000pt" height="500.000000pt" viewBox="0 0 500.000000 500.000000"
 preserveAspectRatio="xMidYMid meet">

<g transform="translate(0.000000,500.000000) scale(0.100000,-0.100000)"
fill="#000000" stroke="none">
<path d="M2060 4245 l0 -85 198 0 c141 0 201 -3 210 -12 16 -16 16 -120 0
-136 -8 -8 -64 -12 -185 -12 -171 0 -174 0 -198 -25 l-25 -24 0 -221 0 -220
105 0 105 0 0 -55 0 -55 -105 0 -105 0 0 -85 0 -85 290 0 291 0 -3 83 -3 82
-100 5 -100 5 -3 53 -3 52 105 0 106 0 0 85 0 85 -198 0 c-141 0 -201 3 -210
12 -7 7 -12 35 -12 63 0 28 5 56 12 63 9 9 69 12 210 12 l198 0 0 250 0 250
-290 0 -290 0 0 -85z"/>
<path d="M3126 3994 c-66 -21 -137 -93 -161 -163 -52 -158 56 -328 223 -348
150 -17 292 107 292 256 0 84 -18 130 -75 187 -79 79 -170 101 -279 68z m149
-189 c52 -51 16 -145 -55 -145 -42 0 -90 47 -90 88 0 71 95 108 145 57z"/>
<path d="M1453 3906 l-28 -24 -3 -186 -4 -186 102 0 101 0 -3 -52 -3 -53 -97
-3 -98 -3 0 -84 0 -85 285 0 285 0 0 85 0 85 -105 0 -105 0 0 55 0 55 105 0
105 0 0 80 0 80 -188 0 c-177 0 -190 1 -207 20 -15 16 -17 26 -9 48 l9 27 198
3 197 2 0 80 0 80 -254 0 -255 0 -28 -24z"/>
<path d="M3560 3665 l0 -265 75 0 75 0 0 265 0 265 -75 0 -75 0 0 -265z"/>
<path d="M2960 3315 l0 -85 85 0 85 0 0 -75 0 -75 80 0 80 0 0 75 0 75 80 0
80 0 0 85 0 85 -245 0 -245 0 0 -85z"/>
<path d="M947 2998 c-363 -594 -387 -635 -394 -668 -11 -56 11 -84 112 -140
52 -28 99 -50 104 -48 6 1 77 113 158 247 82 135 153 246 158 248 6 2 78 -109
160 -247 83 -137 154 -250 160 -250 15 0 245 154 245 165 0 6 -16 34 -36 64
-22 33 -32 57 -27 62 6 6 45 9 89 7 l79 -3 3 -153 3 -153 134 3 c74 2 135 6
135 11 0 4 0 203 0 442 l0 435 -135 0 -134 0 -3 -152 -3 -153 -146 -3 -146 -3
4 -23 c3 -13 1 -32 -4 -41 -8 -13 -29 16 -103 137 -51 84 -107 172 -122 196
l-29 42 -124 0 c-118 0 -125 -1 -138 -22z"/>
<path d="M2295 3006 c-17 -7 -43 -28 -58 -45 l-27 -33 0 -304 0 -304 160 0
160 0 0 -80 0 -80 -165 0 -165 0 0 -140 0 -140 480 0 480 0 0 140 0 140 -180
0 -180 0 0 80 0 80 180 0 181 0 -3 133 -3 132 -317 3 -317 2 -20 26 c-27 34
-27 88 -1 114 19 19 33 20 340 20 l321 0 -3 133 -3 132 -415 2 c-328 2 -421 0
-445 -11z"/>
<path d="M3260 2880 l0 -140 320 0 c307 0 321 -1 340 -20 19 -19 20 -33 20
-215 l0 -195 88 0 c69 0 94 4 119 20 61 37 63 47 63 385 l0 305 -475 0 -475 0
0 -140z"/>
<path d="M3250 2020 l0 -140 180 0 180 0 0 -135 0 -136 138 3 137 3 3 132 3
133 162 2 162 3 0 135 0 135 -482 3 -483 2 0 -140z"/>
<path d="M1580 2050 c-118 -25 -224 -110 -281 -225 -32 -65 -34 -76 -34 -165
0 -91 2 -100 37 -172 45 -90 103 -148 193 -190 256 -119 554 70 555 353 0 93
-18 155 -64 225 -87 131 -258 204 -406 174z m156 -303 c88 -80 35 -207 -87
-207 -33 0 -47 6 -75 34 -29 29 -34 41 -34 81 0 57 12 80 53 105 50 31 101 26
143 -13z"/>
<path d="M2568 1768 c-371 -94 -464 -572 -155 -792 34 -24 85 -52 112 -61 74
-26 188 -31 265 -11 329 84 449 488 218 732 -86 91 -168 131 -296 143 -56 5
-90 3 -144 -11z m175 -272 c72 -30 117 -113 104 -192 -12 -73 -97 -144 -172
-144 -50 0 -111 35 -141 80 -93 141 54 321 209 256z"/>
</g>
</svg>
